<svg xmlns="http://www.w3.org/2000/svg" viewBox="0 0 393.76 68.93"><defs><style>.cls-1,.cls-2{fill:#fff;}.cls-1{fill-rule:evenodd;}</style></defs><g id="Layer_2" data-name="Layer 2"><g id="Layer_1-2" data-name="Layer 1"><path class="cls-1" d="M36.66,46H20.3c-2.15,0-2.69-.61-2.69-2.5v-18c0-1.81.52-2.46,2.47-2.46H36.69L51,34.46ZM68.25,0H36.66L2.21,25.16A5.39,5.39,0,0,0,0,29.32V43.58a4.37,4.37,0,0,0,2.05,3.65l34.61,21.7H68.25L36.66,46H59.72L74,34.46,59.72,23H36.66Z"/><path class="cls-2" d="M105,61.07V10.58a4.23,4.23,0,0,1,4.23-4.23h8.47V56.83a4.24,4.24,0,0,1-4.24,4.24Zm8.8-16.35-1.26-12.21,32-25.16,7.67,6.8ZM130.57,26l24.16,35.1H139.88L122.14,33.14Z"/><path class="cls-2" d="M180,8.48l1.25,15.1-.5-2a23.7,23.7,0,0,1,6-8.18,30.43,30.43,0,0,1,8.05-5.22,18.56,18.56,0,0,1,7.11-1.82l-.63,12.58a17.62,17.62,0,0,0-10.38,2.26,19,19,0,0,0-7,7,18.73,18.73,0,0,0-2.52,9.44V56.83a4.24,4.24,0,0,1-4.24,4.24h-8.47V12.72a4.24,4.24,0,0,1,4.24-4.24Z"/><path class="cls-2" d="M300.41,62.58,270.85,8.48H284l22.58,40.89L296.22,49l20.5-40.51h12.63L301,62.58Z"/><path class="cls-2" d="M361.3,62.33a28.66,28.66,0,0,1-13.46-3.15,23.28,23.28,0,0,1-9.56-9.24q-3.52-6.11-3.52-15.16a29.57,29.57,0,0,1,3.71-15.16,26.1,26.1,0,0,1,9.81-9.81,26.43,26.43,0,0,1,13.28-3.46q7.54,0,12.45,3.14A23.16,23.16,0,0,1,381.56,17l-.76,2,.82-6.83a4.24,4.24,0,0,1,4.21-3.74h7.93V56.83a4.24,4.24,0,0,1-4.24,4.24h-8.46V47.74l1.25,3.14a16,16,0,0,1-2.13,2.89,26.77,26.77,0,0,1-4.28,3.84A26,26,0,0,1,369.54,61,23.47,23.47,0,0,1,361.3,62.33Zm4.54-10.47a16.56,16.56,0,0,0,9.49-3.31,15.74,15.74,0,0,0,5.73-9.12V28.61A16.08,16.08,0,0,0,375,20.06a17.35,17.35,0,0,0-10.63-3.4,16.25,16.25,0,0,0-8.3,2.2A16.42,16.42,0,0,0,350,25a18,18,0,0,0-2.26,9.12A17.81,17.81,0,0,0,350,43.21a17.35,17.35,0,0,0,6.22,6.34A19.94,19.94,0,0,0,365.84,51.86Z"/><path class="cls-2" d="M249.8,48.27a15,15,0,0,1-11.52,4.84c-3.77,0-6.74-1-8.94-3a20,20,0,0,1-2.25-2.46l-.1-.15a6.17,6.17,0,0,1-.56-.81q-.33-.48-.6-1c-.09-.15-.19-.31-.26-.46-.33-.58-.61-1.15-.89-1.72h0l21.24-6.88,8.23-2.86,12.24-4.24s0,0,0,0a37.76,37.76,0,0,0-2.51-7.76A27,27,0,0,0,257,12.44q-7-6.09-17.55-6.1a29.5,29.5,0,0,0-14.83,3.78A29.13,29.13,0,0,0,214,20.25a26.21,26.21,0,0,0-4,14.15,32.74,32.74,0,0,0,.46,5.5,0,0,0,0,0,0,0A37.16,37.16,0,0,0,213,47.69a26.86,26.86,0,0,0,6.85,9.39q7,6.09,17.54,6.1a29.62,29.62,0,0,0,25.48-13.91,27,27,0,0,0,3.39-10l-11.8,4.1a5.15,5.15,0,0,0-2.69,2.24A15.76,15.76,0,0,1,249.8,48.27ZM222.69,31.82a6.08,6.08,0,0,1,.07-.66q.06-.51.12-.84a16.4,16.4,0,0,1,4.19-9.07,15,15,0,0,1,11.51-4.84c3.79,0,6.75,1,8.94,2.95A18,18,0,0,1,252,25.67l-2.93,1.08-26.41,9.14h0A22.53,22.53,0,0,1,222.69,31.82Z"/></g></g></svg>